<svg xmlns:xlink="http://www.w3.org/1999/xlink" xmlns="http://www.w3.org/2000/svg" viewBox="0 0 24 24" fill="currentColor" class="h-4 w-4 text-gray-6 dark:text-dark-gray-6 group-hover:text-gray-7 dark:group-hover:text-dark-gray-7" data-darkreader-inline-fill="" style="--darkreader-inline-fill: currentColor;" width="1" height="1"><path fill-rule="evenodd" d="M6.414 19H10a1 1 0 110 2H4a1 1 0 01-1-1v-6a1 1 0 112 0v3.586l4.293-4.293a1 1 0 011.414 1.414L6.414 19zM17.586 5H14a1 1 0 110-2h6a1 1 0 011 1v6a1 1 0 11-2 0V6.414l-4.293 4.293a1 1 0 01-1.414-1.414L17.586 5z" clip-rule="evenodd" fill="#9E9689"></path></svg>